Coordinates
version=1
nRows=16
nColumns=33
inDegrees=yes

Units are S.I. units (second, meters, Newtons, ...)
Angles are in degrees.

endheader
time	ground_thorax_rot_x	ground_thorax_rot_y	ground_thorax_rot_z	ground_thorax_tx	ground_thorax_ty	ground_thorax_tz	clav_prot_r	clav_elev_r	scapula_abduction_r	scapula_elevation_r	scapula_upward_rot_r	scapula_winging_r	shoulder_elv_r	plane_of_elev_r	axial_rot_r	elbow_flexion_r	pro_sup_r	wrist_flex_r	wrist_dev_r	clav_prot_l	clav_elev_l	scapula_abduction_l	scapula_elevation_l	scapula_upward_rot_l	scapula_winging_l	shoulder_elv_l	plane_of_elev_l	axial_rot_l	elbow_flexion_l	pro_sup_l	wrist_flex_l	wrist_dev_l
      2.15000000	    -30.64795676	    -31.00375208	     38.17037502	    -51.51096692	    780.71756542	     12.00995590	      9.54224060	    -45.00000000	     39.82435398	    -45.00000000	    -45.00000000	  -3334.89063422	  -2272.48797834	    149.88792018	   -126.65314929	   2529.69087644	    387.17715391	     17.57072240	     13.25529341	     15.90316663	     38.66657716	    -35.68994419	    -45.00000000	    -45.00000000	   2237.05234206	  -4613.84502007	     27.12936893	      0.00002864	      2.58222187	     42.72986253	      9.92175294	    -20.97738734
      2.16000000	    -31.08278631	    -30.56263636	     37.58049815	    -53.26616206	    781.68334361	     11.86296704	      9.56227251	    -45.00000000	     39.82095327	    -45.00000000	    -45.00000000	  -3334.89638279	  -2272.07279442	    149.59144349	   -127.31275853	   2529.90453309	    386.97872263	     17.58745074	     13.00051787	     16.07266479	     38.74874670	    -36.08304026	    -45.00000000	    -45.00000000	   2237.29277904	  -4613.56093157	     27.20645725	      0.02032734	      2.85918456	     42.43442715	     10.02579731	    -20.99464838
      2.17000000	    -31.33086258	    -30.34599416	     37.30770369	    -55.23946707	    782.74013504	     11.73211070	      9.58679002	    -45.00000000	     39.95138818	    -45.00000000	    -45.00000000	  -3335.02776045	  -2271.70261867	    149.36777217	   -127.89013337	   2530.13257911	    386.84729820	     17.74133608	     12.85656993	     16.13757591	     38.83790448	    -36.34686450	    -45.00000000	    -45.00000000	   2237.63845566	  -4613.34292005	     27.22884545	      0.23094294	      3.05227558	     41.91418794	     10.11789475	    -21.03364615
      2.18000000	    -31.71534335	    -29.91469594	     36.81789255	    -57.43516669	    783.90221069	     11.61483066	      9.60490241	    -45.00000000	     40.02055912	    -45.00000000	    -45.00000000	  -3335.15052637	  -2271.32016420	    149.12688282	   -128.59387034	   2530.26497508	    386.71689128	     17.88118932	     12.62723586	     16.16588260	     38.92652665	    -36.67447190	    -45.00000000	    -45.00000000	   2238.02763176	  -4613.13217285	     27.45225583	      0.28384368	      3.27256985	     41.38516369	     10.22640252	    -21.09975433
      2.19000000	    -32.02574810	    -29.61971615	     36.38975581	    -59.85053762	    785.17640129	     11.51067753	      9.63316357	    -45.00000000	     40.13009127	    -45.00000000	    -45.00000000	  -3335.28116592	  -2270.90079013	    148.88483489	   -129.34693193	   2530.48939295	    386.58661134	     18.04370537	     12.44351632	     16.23686171	     39.01525427	    -36.97134691	    -45.00000000	    -45.00000000	   2238.37870031	  -4612.85592565	     27.45840881	      0.28000349	      3.54196470	     40.80286735	     10.27089206	    -21.15267923
      2.20000000	    -32.32184511	    -29.28285206	     36.02485048	    -62.48592603	    786.56687873	     11.41718248	      9.64607447	    -45.00000000	     40.27658609	    -45.00000000	    -45.00000000	  -3335.46177253	  -2270.48656788	    148.71903947	   -130.01404798	   2530.72189828	    386.47458033	     18.21639530	     12.27350868	     16.35047282	     39.03553602	    -37.30447130	    -45.00000000	    -45.00000000	   2238.71671876	  -4612.59270221	     27.39646302	      0.19583657	      3.90813503	     40.13919430	     10.26251081	    -21.20740945
      2.21000000	    -32.63960649	    -28.89034327	     35.55755641	    -65.34030862	    788.07596558	     11.33263949	      9.67914451	    -45.00000000	     40.39182197	    -45.00000000	    -45.00000000	  -3335.64393862	  -2270.05194116	    148.48608597	   -130.77435779	   2530.87345444	    386.34081358	     18.38316379	     12.10013224	     16.44365478	     39.00432653	    -37.59826930	    -45.00000000	    -45.00000000	   2239.05754331	  -4612.32077874	     27.41794012	     -0.06537024	      4.23287782	     39.47088020	     10.24524181	    -21.26659025
      2.22000000	    -32.93951019	    -28.50826273	     35.11758308	    -68.41277786	    789.70332018	     11.25549978	      9.73598411	    -45.00000000	     40.54425633	    -45.00000000	    -45.00000000	  -3335.90455736	  -2269.70526237	    148.23225633	   -131.34893870	   2530.99282903	    386.21735483	     18.55454269	     11.95026280	     16.54299111	     38.75430454	    -37.83978800	    -45.00000000	    -45.00000000	   2239.45155680	  -4612.04863482	     27.48731928	     -0.42028347	      4.57414463	     38.70805561	     10.22914472	    -21.33541358
      2.23000000	    -33.38157785	    -27.97393931	     34.35860101	    -71.68927138	    791.44194458	     11.18574455	      9.72243256	    -45.00000000	     40.53588542	    -45.00000000	    -45.00000000	  -3336.00274819	  -2269.24819655	    147.90548474	   -132.08134713	   2531.11308780	    385.99275248	     18.70160896	     11.67358985	     16.61218301	     38.91056549	    -38.23064113	    -45.00000000	    -45.00000000	   2239.86931123	  -4611.77893041	     27.45312364	     -1.07283731	      5.01389547	     38.01577447	     10.11638558	    -21.40694178
      2.24000000	    -33.75674053	    -27.47694526	     33.73002900	    -75.17134289	    793.29062974	     11.12283431	      9.72707824	    -45.00000000	     40.59402006	    -45.00000000	    -45.00000000	  -3336.19043750	  -2268.80608504	    147.66038455	   -132.54668509	   2531.30567923	    385.76167028	     18.85856028	     11.43869813	     16.72588060	     38.99474399	    -38.57973683	    -45.00000000	    -45.00000000	   2240.24850736	  -4611.46452831	     27.34960979	     -1.69680938	      5.52156818	     37.23486210	      9.93455777	    -21.44947946
      2.25000000	    -34.07229453	    -26.95768180	     33.15123434	    -78.84492054	    795.24037363	     11.06738470	      9.74523979	    -45.00000000	     40.73479376	    -45.00000000	    -45.00000000	  -3336.42465240	  -2268.36825189	    147.42507030	   -132.89315152	   2531.41234301	    385.50353545	     19.00069900	     11.22774790	     16.80468616	     38.93618479	    -38.83333994	    -45.00000000	    -45.00000000	   2240.55610628	  -4611.12519891	     27.27379398	     -2.40441701	      5.92686645	     36.40675711	      9.76814482	    -21.48299661
      2.26000000	    -34.35417864	    -26.45759576	     32.60168948	    -82.69672903	    797.27905912	     11.01833563	      9.75903935	    -45.00000000	     40.84897533	    -45.00000000	    -45.00000000	  -3336.66876819	  -2267.94998505	    147.22445579	   -133.16282656	   2531.55426455	    385.20154009	     19.13463239	     11.01470749	     16.87229592	     38.85882048	    -39.04004134	    -45.00000000	    -45.00000000	   2240.88642178	  -4610.77971084	     27.20705120	     -3.07354979	      6.32563492	     35.48069838	      9.61272966	    -21.51148426
      2.27000000	    -34.61948860	    -25.98583903	     32.07619413	    -86.71555353	    799.39339453	     10.97403514	      9.79807573	    -45.00000000	     40.94245626	    -45.00000000	    -45.00000000	  -3336.92381441	  -2267.53951500	    146.99824091	   -133.34313490	   2531.63589403	    384.86590845	     19.23054025	     10.75250832	     16.90820798	     38.78565062	    -39.17407954	    -45.00000000	    -45.00000000	   2241.25177202	  -4610.42431077	     27.15787647	     -3.70061013	      6.74410464	     34.43891126	      9.48851582	    -21.55248688
      2.28000000	    -35.16145645	    -25.02938454	     30.86537821	    -90.88224132	    801.56333199	     10.93154791	      9.69749866	    -45.00000000	     41.23847239	    -45.00000000	    -43.36966476	  -3337.27058164	  -2267.34164142	    147.14050927	   -133.25618702	   2531.78640562	    384.62449116	     19.36506106	     10.63040156	     17.03458710	     38.76918059	    -39.76497098	    -45.00000000	    -45.00000000	   2241.65560974	  -4610.16382642	     27.01183528	     -4.43134617	      7.36194693	     33.49138604	      9.09821954	    -21.52165378
      2.29000000	    -35.45057266	    -24.33802334	     30.14976056	    -95.17990944	    803.76894977	     10.88843451	      9.70928447	    -45.00000000	     41.35626394	    -45.00000000	    -42.93240977	  -3337.56780889	  -2266.97175236	    147.00246746	   -133.06395946	   2531.76202605	    384.38482262	     19.41070646	     10.31885852	     17.00721613	     38.70082426	    -39.91484985	    -45.00000000	    -45.00000000	   2241.92282116	  -4609.79979105	     27.07611663	     -4.88296627	      7.61598084	     32.47220969	      9.02516444	    -21.57038025
      2.30000000	    -35.78631261	    -23.65689981	     29.33455391	    -99.59793275	    805.99169043	     10.84145991	      9.67847630	    -45.00000000	     41.59087691	    -45.00000000	    -42.21909554	  -3337.83513587	  -2266.59098609	    147.08603966	   -132.92422469	   2532.05620024	    384.17610489	     19.52590461	     10.12728438	     17.09372703	     38.82104259	    -40.35317122	    -45.00000000	    -45.00000000	   2242.20803221	  -4609.50390433	     26.68860522	     -5.51743291	      8.10190494	     31.43515664	      8.64660470	    -21.51532920
